<svg xmlns="http://www.w3.org/2000/svg" width="14.191" height="14.188" viewBox="0 0 14.191 14.188">
  <defs>
    <style>
      .cls-1 {
        fill: #00004f;
      }
    </style>
  </defs>
  <path id="Icon_awesome-instagram" data-name="Icon awesome-instagram" class="cls-1" d="M7.092,5.694a3.638,3.638,0,1,0,3.638,3.638A3.632,3.632,0,0,0,7.092,5.694Zm0,6A2.365,2.365,0,1,1,9.457,9.332,2.369,2.369,0,0,1,7.092,11.7Zm4.635-6.151a.848.848,0,1,1-.848-.848A.846.846,0,0,1,11.727,5.545Zm2.409.861A4.2,4.2,0,0,0,12.99,3.434a4.226,4.226,0,0,0-2.973-1.146c-1.171-.066-4.682-.066-5.854,0A4.22,4.22,0,0,0,1.191,3.43,4.213,4.213,0,0,0,.045,6.4c-.066,1.171-.066,4.682,0,5.854A4.2,4.2,0,0,0,1.191,15.23a4.232,4.232,0,0,0,2.973,1.146c1.171.066,4.682.066,5.854,0A4.2,4.2,0,0,0,12.99,15.23a4.226,4.226,0,0,0,1.146-2.973c.066-1.171.066-4.679,0-5.851Zm-1.513,7.107a2.394,2.394,0,0,1-1.349,1.349,15.636,15.636,0,0,1-4.182.285,15.758,15.758,0,0,1-4.182-.285,2.394,2.394,0,0,1-1.349-1.349,15.636,15.636,0,0,1-.285-4.182A15.758,15.758,0,0,1,1.561,5.15,2.394,2.394,0,0,1,2.91,3.8a15.636,15.636,0,0,1,4.182-.285,15.758,15.758,0,0,1,4.182.285A2.394,2.394,0,0,1,12.623,5.15a15.636,15.636,0,0,1,.285,4.182A15.627,15.627,0,0,1,12.623,13.514Z" transform="translate(0.005 -2.238)"/>
</svg>
