<svg xmlns="http://www.w3.org/2000/svg" width="15.092" height="14.188" viewBox="0 0 15.092 14.188">
  <defs>
    <style>
      .cls-1 {
        fill: #00004f;
      }
    </style>
  </defs>
  <path id="Icon_awesome-snapchat-ghost" data-name="Icon awesome-snapchat-ghost" class="cls-1" d="M15.058,12.2c-.154.358-.8.622-1.986.805a5.529,5.529,0,0,0-.192.706.341.341,0,0,1-.357.261h-.009c-.277,0-.566-.127-1.145-.127a2.333,2.333,0,0,0-1.658.607,3.32,3.32,0,0,1-2.182.808,3.385,3.385,0,0,1-2.148-.808,2.33,2.33,0,0,0-1.658-.607,11.133,11.133,0,0,0-1.145.139.35.35,0,0,1-.366-.266,5.46,5.46,0,0,0-.192-.711C1.41,12.913.035,12.673,0,12.06a.313.313,0,0,1,.262-.326A4.437,4.437,0,0,0,3.275,9.2l.007-.015a.67.67,0,0,0,.073-.553c-.149-.351-.792-.476-1.063-.584-.7-.276-.8-.593-.755-.811a.759.759,0,0,1,.973-.455,1.687,1.687,0,0,0,.694.186A.6.6,0,0,0,3.5,6.9a8.8,8.8,0,0,1,.168-3.418A4.016,4.016,0,0,1,7.393,1.081l.3,0a3.988,3.988,0,0,1,3.735,2.407A8.8,8.8,0,0,1,11.594,6.9a.578.578,0,0,0,.253.063,1.761,1.761,0,0,0,.651-.184.8.8,0,0,1,.6,0h0a.612.612,0,0,1,.46.527c.005.287-.251.535-.763.737-.062.025-.138.049-.219.074-.289.092-.725.23-.843.509a.669.669,0,0,0,.073.553l.007.015a4.436,4.436,0,0,0,3.013,2.533A.322.322,0,0,1,15.058,12.2Z" transform="translate(0 -1.078)"/>
</svg>
