<svg xmlns="http://www.w3.org/2000/svg" width="17.469" height="14.188" viewBox="0 0 17.469 14.188">
  <defs>
    <style>
      .cls-1 {
        fill: #00004f;
      }
    </style>
  </defs>
  <path id="Icon_awesome-twitter" data-name="Icon awesome-twitter" class="cls-1" d="M15.673,6.917c.011.155.011.31.011.466A10.117,10.117,0,0,1,5.5,17.569,10.117,10.117,0,0,1,0,15.962a7.406,7.406,0,0,0,.865.044,7.17,7.17,0,0,0,4.445-1.53,3.587,3.587,0,0,1-3.347-2.483,4.515,4.515,0,0,0,.676.055,3.787,3.787,0,0,0,.942-.122A3.581,3.581,0,0,1,.709,8.413V8.369a3.606,3.606,0,0,0,1.618.454A3.586,3.586,0,0,1,1.219,4.035,10.177,10.177,0,0,0,8.6,7.781a4.042,4.042,0,0,1-.089-.82,3.584,3.584,0,0,1,6.2-2.45,7.049,7.049,0,0,0,2.272-.865A3.571,3.571,0,0,1,15.407,5.62a7.177,7.177,0,0,0,2.062-.554,7.7,7.7,0,0,1-1.8,1.851Z" transform="translate(0 -3.381)"/>
</svg>
