<svg xmlns="http://www.w3.org/2000/svg" width="20.178" height="14.188" viewBox="0 0 20.178 14.188">
  <defs>
    <style>
      .cls-1 {
        fill: #00004f;
      }
    </style>
  </defs>
  <path id="Icon_awesome-youtube" data-name="Icon awesome-youtube" class="cls-1" d="M20.807,6.72a2.535,2.535,0,0,0-1.784-1.8C17.449,4.5,11.139,4.5,11.139,4.5s-6.31,0-7.884.424a2.536,2.536,0,0,0-1.784,1.8,26.6,26.6,0,0,0-.422,4.888A26.6,26.6,0,0,0,1.472,16.5a2.5,2.5,0,0,0,1.784,1.767c1.574.424,7.884.424,7.884.424s6.31,0,7.884-.424A2.5,2.5,0,0,0,20.807,16.5a26.6,26.6,0,0,0,.422-4.888,26.6,26.6,0,0,0-.422-4.888ZM9.075,14.609v-6l5.274,3-5.274,3Z" transform="translate(-1.05 -4.5)"/>
</svg>
